# AST/ASF file generated using VICON BodyLanguage
# -----------------------------------------------
:version 1.10
:name VICON
:units
  mass 1.0
  length 0.45
  angle deg
:documentation
   .ast/.asf automatically generated from VICON data using
   VICON BodyBuilder and BodyLanguage model FoxedUp or BRILLIANT.MOD
:root
   order TX TY TZ RX RY RZ
   axis XYZ
   position 0 0 0  
   orientation 0 0 0 
:bonedata
  begin
     id 1 
     name lhipjoint
     direction 0.653368 -0.678499 0.335782 
     length 2.51848 
     axis 0 0 0  XYZ
  end
  begin
     id 2 
     name lfemur
     direction 0.34202 -0.939693 0  
     length 6.57749  
     axis 0 0 20  XYZ
    dof rx ry rz
    limits (-160.0 20.0)
           (-70.0 70.0)
           (-60.0 70.0)
  end
  begin
     id 3 
     name ltibia
     direction 0.34202 -0.939693 0   
     length 7.94618   
     axis 0 0 20   XYZ
    dof rx
    limits (-10.0 170.0)
  end
  begin
     id 4 
     name lfoot
     direction 0.0811271 -0.222895 0.971461   
     length 2.31339   
     axis -90 7.62852e-016 20   XYZ
    dof rx rz
    limits (-45.0 90.0)
           (-70.0 20.0)
  end
  begin
     id 5 
     name ltoes
     direction 1.53568e-011 -4.21885e-011 1   
     length 1.15935   
     axis -90 7.62852e-016 20   XYZ
    dof rx
    limits (-90.0 20.0)
  end
  begin
     id 6 
     name rhipjoint
     direction -0.640058 -0.688614 0.340788   
     length 2.48149  
     axis 0 0 0  XYZ 
  end
  begin
     id 7 
     name rfemur
     direction -0.34202 -0.939693 0   
     length 6.57875   
     axis 0 0 -20   XYZ
    dof rx ry rz
    limits (-160.0 20.0)
           (-70.0 70.0)
           (-70.0 60.0)
  end
  begin
     id 8 
     name rtibia
     direction -0.34202 -0.939693 0   
     length 7.977   
     axis 0 0 -20   XYZ
    dof rx
    limits (-10.0 170.0)
 end
 begin
     id 9 
     name rfoot
     direction -0.0979793 -0.269196 0.958089   
     length 2.19857  
     axis -90 -7.62852e-016 -20   XYZ
    dof rx rz
    limits (-45.0 90.0)
           (-20.0 70.0)
  end
  begin
     id 10 
     name rtoes
     direction -1.53556e-011 -4.21868e-011 1   
     length 1.09838   
     axis -90 -7.62852e-016 -20   XYZ
    dof rx
    limits (-90.0 20.0)
  end
  begin
     id 11 
     name lowerback
     direction 0.0149039 0.998517 -0.0523597   
     length 2.10809   
     axis 0 0 0   XYZ
    dof rx ry rz
    limits (-20.0 45.0)
           (-30.0 30.0)
           (-30.0 30.0)
  end
  begin
     id 12 
     name upperback
     direction -0.00882659 0.999418 -0.0329624   
     length 2.1102   
     axis 0 0 0   XYZ
    dof rx ry rz
    limits (-20.0 45.0)
           (-30.0 30.0)
           (-30.0 30.0)
  end
  begin
     id 13 
     name thorax
     direction -0.0165585 0.999826 -0.0085833   
     length 2.11039   
     axis 0 0 0   XYZ
    dof rx ry rz
    limits (-20.0 45.0)
           (-30.0 30.0)
           (-30.0 30.0)
  end
  begin
     id 14 
     name lowerneck
     direction -0.0130877 0.999911 0.00260353   
     length 1.73253   
     axis 0 0 0   XYZ
    dof rx ry rz
    limits (-20.0 45.0)
           (-30.0 30.0)
           (-30.0 30.0)
  end
  begin
     id 15 
     name upperneck
     direction -0.0348454 0.928205 -0.370435   
     length 1.66692   
     axis 0 0 0   XYZ
    dof rx ry rz
    limits (-20.0 45.0)
           (-30.0 30.0)
           (-30.0 30.0)
  end
  begin
     id 16
     name head
     direction -0.00807754 0.992494 -0.122026  
     length 1.72765  
     axis 0 0 0   XYZ
    dof rx ry rz
    limits (-20.0 45.0)
           (-30.0 30.0)
           (-30.0 30.0)
  end
  begin
     id 17 
     name lclavicle
     direction 0.987582 0.144023 0.0627671  
     length 3.49235  
     axis 0 0 0   XYZ
    dof ry rz
    limits (-20.0 10.0)
           (0.0 20.0)
  end
  begin
     id 18 
     name lhumerus
     direction 1 -4.48958e-011 -1.45183e-018   
     length 5.41917   
     axis 180 -30 -90   XYZ
    dof rx ry rz
    limits (-60.0 90.0)
           (-90.0 90.0)
           (-90.0 90.0)
  end
  begin
     id 19
     name lradius
     direction 1 -4.48999e-011 5.75106e-027   
     length 2.44373   
     axis 180 -30 -90   XYZ
    dof rx
    limits (-10.0 170.0)
  end
  begin
     id 20
     name lwrist
     direction 1 -4.48987e-011 1.53461e-026   
     length 1.22186   
     axis -1.09697e-014 90 90   XYZ
    dof ry
    limits (-180.0 0.0)
 end
  begin
     id 21 
     name lhand
     direction 1 -4.48881e-011 3.06923e-026   
     length 0.727502   
     axis -1.95843e-014 90 90   XYZ
    dof rx rz
    limits (-90.0 90.0)
           (-45.0 45.0)
  end
  begin
     id 22 
     name lfingers
     direction 1 -4.48907e-011 6.13845e-026   
     length 0.586531   
     axis -3.91686e-014 90 90   XYZ
    dof rx
    limits (0.0 90.0)
  end
  begin
     id 23
     name lthumb
     direction 0.707107 -6.3487e-011 0.707107   
     length 0.842145   
     axis -90 45 2.85299e-015   XYZ
    dof rx rz
    limits (-45.0 45.0)
           (-45.0 45.0)
  end
  begin
     id 24 
     name rclavicle
     direction -0.980998 0.169556 0.0943023   
     length 3.29272  
     axis 0 0 0   XYZ 
    dof ry rz
    limits (-10.0 20.0)
           (-20.0 0.0)
  end
  begin
     id 25 
     name rhumerus
     direction -1 -1.83355e-005 2.45537e-005  
     length 5.58976   
     axis 180 30 90   XYZ
    dof rx ry rz
    limits (-90.0 60.0)
           (-90.0 90.0)
           (-90.0 90.0)
  end
  begin
     id 26 
     name rradius
     direction -1 -4.48967e-011 5.97228e-027   
     length 2.4806   
     axis 180 30 90   XYZ
    dof rx
    limits (-10.0 170.0)
  end
  begin
     id 27 
     name rwrist
     direction -1 -4.48963e-011 1.53461e-026   
     length 1.2403   
     axis -1.09697e-014 -90 -90   XYZ
    dof ry
    limits (-180.0 0.0)
  end
  begin
     id 28
     name rhand
     direction -1 -4.48881e-011 3.06923e-026   
     length 0.816009   
     axis -1.95843e-014 -90 -90   XYZ
    dof rx rz
    limits (-90.0 90.0)
           (-45.0 45.0)
  end
  begin
     id 29
     name rfingers
     direction -1 -4.49018e-011 6.13845e-026   
     length 0.657887   
     axis -3.91686e-014 -90 -90   XYZ
    dof rx
    limits (0.0 90.0)
  end
  begin
     id 30
     name rthumb
     direction -0.707107 -6.34872e-011 0.707107   
     length 0.944599   
     axis -90 -45 -2.85299e-015   XYZ
    dof rx rz
    limits (-45.0 45.0)
           (-45.0 45.0)
  end
:hierarchy
  begin
    root lhipjoint rhipjoint lowerback
    lhipjoint lfemur
    lfemur ltibia
    ltibia lfoot
    lfoot ltoes
    rhipjoint rfemur
    rfemur rtibia
    rtibia rfoot
    rfoot rtoes
    lowerback upperback
    upperback thorax
    thorax lowerneck lclavicle rclavicle
    lowerneck upperneck
    upperneck head
    lclavicle lhumerus
    lhumerus lradius
    lradius lwrist
    lwrist lhand lthumb
    lhand lfingers
    rclavicle rhumerus
    rhumerus rradius
    rradius rwrist
    rwrist rhand rthumb
    rhand rfingers
  end

#!OML:ASF F:\VICON\USERDATA\INSTALL\rory3\rory3.ASF
:FULLY-SPECIFIED
:DEGREES
81
root 0.209738 16.3953 33.0611 -154.669 -0.493718 -176.329
lowerback -12.0808 1.6328 6.18259
upperback -8.23828 2.83309 0.867384
thorax -1.71023 1.73798 -2.28387
lowerneck -12.9044 1.7621 -1.00338
upperneck 37.4463 -1.63735 0.89422
head 15.2725 -2.12204 -0.0962975
rclavicle -1.99779e-014 -2.22639e-014
rhumerus -43.6334 6.1205 -85.0158
rradius 17.2513
rwrist -4.37211
rhand 20.6904 7.25316
rfingers 7.12502
rthumb 45.1777 -16.1761
lclavicle -1.99779e-014 -2.22639e-014
lhumerus -48.0136 7.57048 70.4502
lradius 18.2774
lwrist -1.8607
lhand 25.7154 19.4867
lfingers 7.12502
lthumb 49.8171 40.8049
rfemur -38.7466 4.0126 34.4121
rtibia 43.5185
rfoot -50.433 -30.167
rtoes 28.9536
lfemur -44.4327 21.3201 -19.8046
ltibia 79.7909
lfoot 19.689 6.50712
ltoes -18.1658
82
root 0.202176 16.3964 33.0436 -154.771 -0.823122 -176.457
lowerback -11.8857 3.04058 5.80022
upperback -8.11967 2.3472 0.694607
thorax -1.62932 0.462484 -2.26791
lowerneck -13.1307 1.70848 -1.07656
upperneck 37.4455 -1.68889 0.966685
head 15.3277 -2.12933 -0.0599657
rclavicle 4.80065e-014 5.04913e-014
rhumerus -43.4541 6.01411 -85.0724
rradius 17.2269
rwrist -4.18182
rhand 20.3177 7.5574
rfingers 7.12502
rthumb 44.8309 -16.0085
lclavicle 4.80065e-014 5.04913e-014
lhumerus -47.5365 7.78688 70.4125
lradius 18.076
lwrist -1.9081
lhand 25.3509 19.383
lfingers 7.12502
lthumb 49.4831 40.873
rfemur -38.5425 4.33292 34.2469
rtibia 43.3766
rfoot -50.755 -30.6418
rtoes 30.1211
lfemur -45.4132 20.6112 -19.6037
ltibia 80.3251
lfoot 17.3142 6.37839
ltoes -14.85
83
root 0.184436 16.387 33.0171 -155.086 -1.00192 -176.472
lowerback -11.5156 2.9997 5.9452
upperback -8.02665 2.3417 0.683223
thorax -1.72652 0.469756 -2.37104
lowerneck -12.9903 1.69672 -1.07013
upperneck 37.4057 -1.75332 1.06128
head 15.277 -2.14494 -0.0301175
rclavicle 3.8266e-015 1.07344e-014
rhumerus -43.6778 6.08004 -85.2389
rradius 17.3631
rwrist -4.09843
rhand 20.1152 7.77655
rfingers 7.12502
rthumb 44.6424 -15.8625
lclavicle 3.8266e-015 1.07344e-014
lhumerus -47.4362 8.0767 70.176
lradius 18.0211
lwrist -2.35866
lhand 25.3608 19.4823
lfingers 7.12502
lthumb 49.4922 40.9677
rfemur -38.1653 4.09142 34.3099
rtibia 43.1952
rfoot -49.5145 -33.0112
rtoes 26.4586
lfemur -45.9928 20.1209 -19.3194
ltibia 80.8352
lfoot 10.9503 6.0727
ltoes -23.1308
84
root 0.163948 16.3679 32.9946 -155.268 -0.924002 -176.486
lowerback -11.1539 3.029 6.01478
upperback -7.95258 2.43151 0.644225
thorax -1.83288 0.52368 -2.45097
lowerneck -13.0169 1.69013 -1.03202
upperneck 37.4446 -1.81071 1.13391
head 15.3045 -2.15401 -0.0165312
rclavicle -6.58474e-015 -1.90833e-014
rhumerus -43.6323 6.0254 -85.343
rradius 17.24
rwrist -4.105
rhand 20.2467 8.07117
rfingers 7.12502
rthumb 44.7648 -15.5204
lclavicle -6.58474e-015 -1.90833e-014
lhumerus -47.2702 8.46194 69.8561
lradius 17.8993
lwrist -2.9963
lhand 25.3659 19.1181
lfingers 7.12502
lthumb 49.4969 40.601
rfemur -38.1351 3.58166 34.4191
rtibia 43.0092
rfoot -45.7592 -37.3153
rtoes 16.6273
lfemur -46.6515 19.6994 -19.2488
ltibia 81.3664
lfoot 7.13725 6.54376
ltoes -22.5522
85
root 0.148837 16.3573 32.9748 -155.164 -0.91865 -176.393
lowerback -11.1129 3.12879 6.19217
upperback -7.86796 2.56811 0.578832
thorax -1.74522 0.59623 -2.60461
lowerneck -13.2713 1.61328 -0.961134
upperneck 37.4608 -1.92087 1.15835
head 15.3755 -2.17035 -0.0361604
rclavicle -7.03201e-015 -7.95139e-015
rhumerus -43.5669 5.94191 -85.5176
rradius 17.3493
rwrist -4.15971
rhand 20.3263 8.35
rfingers 7.12502
rthumb 44.8389 -15.2127
lclavicle -7.03201e-015 -7.95139e-015
lhumerus -46.8803 8.1847 70.0395
lradius 18.0112
lwrist -2.74871
lhand 25.172 18.8371
lfingers 7.12502
lthumb 49.3191 40.4102
rfemur -38.1538 3.73423 34.4068
rtibia 42.9759
rfoot -46.3616 -37.1356
rtoes 17.0153
lfemur -47.6849 19.1219 -19.1432
ltibia 81.8245
lfoot 3.18726 7.26386
ltoes -22.6895
86
root 0.139629 16.342 32.9559 -155.082 -1.01548 -176.387
lowerback -11.1605 3.16034 6.21457
upperback -7.76802 2.62134 0.519948
thorax -1.60614 0.636001 -2.6707
lowerneck -13.2416 1.52326 -1.00831
upperneck 37.3066 -2.07087 1.34405
head 15.298 -2.19993 0.0320175
rclavicle -2.65874e-014 -1.98785e-015
rhumerus -43.6111 5.80529 -85.6892
rradius 17.6619
rwrist -4.04188
rhand 20.2683 7.83319
rfingers 7.12502
rthumb 44.7849 -15.7506
lclavicle -2.65874e-014 -1.98785e-015
lhumerus -46.5221 7.8547 70.2719
lradius 18.1599
lwrist -2.57258
lhand 25.225 19.0364
lfingers 7.12502
lthumb 49.3677 40.5849
rfemur -38.2122 3.96455 34.3357
rtibia 43.0427
rfoot -47.2195 -36.5193
rtoes 19.3416
lfemur -48.6871 18.5529 -19.0485
ltibia 82.0533
lfoot 1.52204 8.52612
ltoes -17.6795
87
root 0.129017 16.3346 32.9327 -155.093 -1.388 -176.549
lowerback -10.996 3.08101 6.11561
upperback -7.86613 2.53586 0.510159
thorax -1.80971 0.586548 -2.64059
lowerneck -12.7404 1.47596 -1.08323
upperneck 37.1591 -2.18508 1.43225
head 15.1111 -2.26098 0.0684651
rclavicle 2.11209e-014 2.06736e-014
rhumerus -44.0077 5.81472 -85.809
rradius 17.8761
rwrist -3.78641
rhand 19.9634 7.88944
rfingers 7.12502
rthumb 44.501 -15.804
lclavicle 2.11209e-014 2.06736e-014
lhumerus -46.5558 7.51379 70.5063
lradius 18.2574
lwrist -2.5803
lhand 25.1613 19.1353
lfingers 7.12502
lthumb 49.3092 40.7133
rfemur -38.19 4.28591 34.1043
rtibia 43.1973
rfoot -48.8911 -36.047
rtoes 21.613
lfemur -49.616 17.7649 -18.9641
ltibia 82.1301
lfoot -2.96426 8.23063
ltoes -21.5679
88
root 0.117693 16.3319 32.9054 -155.109 -1.89001 -176.777
lowerback -10.7123 2.9183 6.04804
upperback -8.01044 2.34511 0.491894
thorax -2.13487 0.477853 -2.65007
lowerneck -12.4896 1.4848 -1.12471
upperneck 37.1429 -2.20897 1.47708
head 15.0455 -2.28348 0.0911588
rclavicle -1.5704e-014 -7.15625e-015
rhumerus -44.2958 5.96183 -86.0694
rradius 17.8318
rwrist -3.75893
rhand 19.6796 8.32034
rfingers 7.12502
rthumb 44.2365 -15.4738
lclavicle -1.5704e-014 -7.15625e-015
lhumerus -46.6311 7.22119 70.7151
lradius 18.2631
lwrist -2.70476
lhand 24.8186 19.0187
lfingers 7.12502
lthumb 48.9946 40.7538
rfemur -38.1435 4.56816 33.841
rtibia 43.3344
rfoot -49.8934 -35.6018
rtoes 25.0041
lfemur -50.5747 16.8211 -18.8941
ltibia 82.1148
lfoot -5.04733 8.16157
ltoes -19.7963
89
root 0.109516 16.3333 32.8708 -155.218 -2.02492 -176.906
lowerback -10.5098 2.90047 5.95123
upperback -7.8916 2.37764 0.425901
thorax -2.11739 0.516161 -2.66696
lowerneck -12.8533 1.38806 -1.16404
upperneck 37.2629 -2.37738 1.60811
head 15.1964 -2.32977 0.122689
rclavicle -2.74571e-014 -9.54166e-015
rhumerus -43.9858 5.77969 -86.137
rradius 17.6481
rwrist -3.81427
rhand 20.068 8.02287
rfingers 7.12502
rthumb 44.5985 -15.6331
lclavicle -2.74571e-014 -9.54166e-015
lhumerus -46.3017 6.84622 71.0589
lradius 18.4088
lwrist -2.7999
lhand 24.6942 18.8973
lfingers 7.12502
lthumb 48.8803 40.6887
rfemur -37.9169 5.09788 33.5777
rtibia 43.4362
rfoot -50.9017 -36.3782
rtoes 23.392
lfemur -51.3402 16.2871 -18.8419
ltibia 81.9214
lfoot -5.51995 9.1717
ltoes -18.5336
